<?xml version="1.0" encoding="UTF-8" standalone="no"?>
<!-- Generator: Adobe Illustrator 16.0.0, SVG Export Plug-In . SVG Version: 6.00 Build 0)  -->

<svg
   xmlns:dc="http://purl.org/dc/elements/1.1/"
   xmlns:cc="http://creativecommons.org/ns#"
   xmlns:rdf="http://www.w3.org/1999/02/22-rdf-syntax-ns#"
   xmlns:svg="http://www.w3.org/2000/svg"
   xmlns="http://www.w3.org/2000/svg"
   xmlns:sodipodi="http://sodipodi.sourceforge.net/DTD/sodipodi-0.dtd"
   xmlns:inkscape="http://www.inkscape.org/namespaces/inkscape"
   version="1.1"
   id="Capa_1"
   x="0px"
   y="0px"
   width="15.999999"
   height="12"
   viewBox="0 0 15.999999 12"
   xml:space="preserve"
   sodipodi:docname="backspace.svg"
   inkscape:version="0.92.3 (2405546, 2018-03-11)"><metadata
   id="metadata42"><rdf:RDF><cc:Work
       rdf:about=""><dc:format>image/svg+xml</dc:format><dc:type
         rdf:resource="http://purl.org/dc/dcmitype/StillImage" /><dc:title></dc:title></cc:Work></rdf:RDF></metadata><defs
   id="defs40" /><sodipodi:namedview
   pagecolor="#ffffff"
   bordercolor="#666666"
   borderopacity="1"
   objecttolerance="10"
   gridtolerance="10"
   guidetolerance="10"
   inkscape:pageopacity="0"
   inkscape:pageshadow="2"
   inkscape:window-width="1853"
   inkscape:window-height="1025"
   id="namedview38"
   showgrid="false"
   fit-margin-top="0"
   fit-margin-left="0"
   fit-margin-right="0"
   fit-margin-bottom="0"
   inkscape:zoom="0.38562092"
   inkscape:cx="306"
   inkscape:cy="229.5"
   inkscape:window-x="67"
   inkscape:window-y="27"
   inkscape:window-maximized="1"
   inkscape:current-layer="Capa_1" />
<g
   id="g5"
   transform="matrix(0.02614379,0,0,0.02614379,0,-1.9999999)">
	<g
   id="backspace">
		<path
   d="M 561,76.5 H 178.5 c -17.85,0 -30.6,7.65 -40.8,22.95 L 0,306 137.7,512.55 c 10.2,12.75 22.95,22.95 40.8,22.95 H 561 c 28.05,0 51,-22.95 51,-51 v -357 c 0,-28.05 -22.95,-51 -51,-51 z m -76.5,321.3 -35.7,35.7 -91.8,-91.8 -91.8,91.8 -35.7,-35.7 91.8,-91.8 -91.8,-91.8 35.7,-35.7 91.8,91.8 91.8,-91.8 35.7,35.7 -91.8,91.8 z"
   id="path2"
   inkscape:connector-curvature="0" />
	</g>
</g>
<g
   id="g7"
   transform="translate(0,-523.5)">
</g>
<g
   id="g9"
   transform="translate(0,-523.5)">
</g>
<g
   id="g11"
   transform="translate(0,-523.5)">
</g>
<g
   id="g13"
   transform="translate(0,-523.5)">
</g>
<g
   id="g15"
   transform="translate(0,-523.5)">
</g>
<g
   id="g17"
   transform="translate(0,-523.5)">
</g>
<g
   id="g19"
   transform="translate(0,-523.5)">
</g>
<g
   id="g21"
   transform="translate(0,-523.5)">
</g>
<g
   id="g23"
   transform="translate(0,-523.5)">
</g>
<g
   id="g25"
   transform="translate(0,-523.5)">
</g>
<g
   id="g27"
   transform="translate(0,-523.5)">
</g>
<g
   id="g29"
   transform="translate(0,-523.5)">
</g>
<g
   id="g31"
   transform="translate(0,-523.5)">
</g>
<g
   id="g33"
   transform="translate(0,-523.5)">
</g>
<g
   id="g35"
   transform="translate(0,-523.5)">
</g>
</svg>