<?xml version="1.0" encoding="UTF-8" standalone="no"?>
<!-- Generator: Adobe Illustrator 16.0.0, SVG Export Plug-In . SVG Version: 6.00 Build 0)  -->

<svg
   xmlns:dc="http://purl.org/dc/elements/1.1/"
   xmlns:cc="http://creativecommons.org/ns#"
   xmlns:rdf="http://www.w3.org/1999/02/22-rdf-syntax-ns#"
   xmlns:svg="http://www.w3.org/2000/svg"
   xmlns="http://www.w3.org/2000/svg"
   xmlns:sodipodi="http://sodipodi.sourceforge.net/DTD/sodipodi-0.dtd"
   xmlns:inkscape="http://www.inkscape.org/namespaces/inkscape"
   version="1.1"
   id="Capa_1"
   x="0px"
   y="0px"
   width="13.818182"
   height="16"
   viewBox="0 0 13.818182 16"
   xml:space="preserve"
   sodipodi:docname="copy.svg"
   inkscape:version="0.92.3 (2405546, 2018-03-11)"><metadata
   id="metadata42"><rdf:RDF><cc:Work
       rdf:about=""><dc:format>image/svg+xml</dc:format><dc:type
         rdf:resource="http://purl.org/dc/dcmitype/StillImage" /><dc:title></dc:title></cc:Work></rdf:RDF></metadata><defs
   id="defs40" /><sodipodi:namedview
   pagecolor="#ffffff"
   bordercolor="#666666"
   borderopacity="1"
   objecttolerance="10"
   gridtolerance="10"
   guidetolerance="10"
   inkscape:pageopacity="0"
   inkscape:pageshadow="2"
   inkscape:window-width="1853"
   inkscape:window-height="1025"
   id="namedview38"
   showgrid="false"
   inkscape:zoom="1.6827094"
   inkscape:cx="84.093614"
   inkscape:cy="3.1698474"
   inkscape:window-x="67"
   inkscape:window-y="27"
   inkscape:window-maximized="1"
   inkscape:current-layer="Capa_1"
   fit-margin-top="0"
   fit-margin-left="0"
   fit-margin-right="0"
   fit-margin-bottom="0" />
<g
   id="g5"
   transform="matrix(0.0285205,0,0,0.0285205,-1.0909091,0)">
	<g
   id="content-copy">
		<path
   d="m 395.25,0 h -306 c -28.05,0 -51,22.95 -51,51 v 357 h 51 V 51 h 306 z m 76.5,102 h -280.5 c -28.05,0 -51,22.95 -51,51 v 357 c 0,28.05 22.95,51 51,51 h 280.5 c 28.05,0 51,-22.95 51,-51 V 153 c 0,-28.05 -22.95,-51 -51,-51 z m 0,408 H 191.25 V 153 h 280.5 z"
   id="path2"
   inkscape:connector-curvature="0" />
	</g>
</g>
<g
   id="g7"
   transform="matrix(0.057041,0,0,0.057041,-2.1818183,-16.000001)">
</g>
<g
   id="g9"
   transform="matrix(0.057041,0,0,0.057041,-2.1818183,-16.000001)">
</g>
<g
   id="g11"
   transform="matrix(0.057041,0,0,0.057041,-2.1818183,-16.000001)">
</g>
<g
   id="g13"
   transform="matrix(0.057041,0,0,0.057041,-2.1818183,-16.000001)">
</g>
<g
   id="g15"
   transform="matrix(0.057041,0,0,0.057041,-2.1818183,-16.000001)">
</g>
<g
   id="g17"
   transform="matrix(0.057041,0,0,0.057041,-2.1818183,-16.000001)">
</g>
<g
   id="g19"
   transform="matrix(0.057041,0,0,0.057041,-2.1818183,-16.000001)">
</g>
<g
   id="g21"
   transform="matrix(0.057041,0,0,0.057041,-2.1818183,-16.000001)">
</g>
<g
   id="g23"
   transform="matrix(0.057041,0,0,0.057041,-2.1818183,-16.000001)">
</g>
<g
   id="g25"
   transform="matrix(0.057041,0,0,0.057041,-2.1818183,-16.000001)">
</g>
<g
   id="g27"
   transform="matrix(0.057041,0,0,0.057041,-2.1818183,-16.000001)">
</g>
<g
   id="g29"
   transform="matrix(0.057041,0,0,0.057041,-2.1818183,-16.000001)">
</g>
<g
   id="g31"
   transform="matrix(0.057041,0,0,0.057041,-2.1818183,-16.000001)">
</g>
<g
   id="g33"
   transform="matrix(0.057041,0,0,0.057041,-2.1818183,-16.000001)">
</g>
<g
   id="g35"
   transform="matrix(0.057041,0,0,0.057041,-2.1818183,-16.000001)">
</g>
</svg>